<svg id="Layer_1" data-name="Layer 1" xmlns="http://www.w3.org/2000/svg" width="380.56" height="75" viewBox="0 0 380.56 75"><defs><style>.cls-1{fill:#5e514d}.cls-2{fill:#786a65}.cls-3{fill:url(#radial-gradient)}.cls-4{fill:#da291c}</style><radialGradient id="radial-gradient" cx="31.35" cy="138.63" r="18.16" gradientTransform="matrix(1 0 0 -1 0 168.05)" gradientUnits="userSpaceOnUse"><stop offset=".16" stop-color="#d6d2d1"/><stop offset=".9" stop-color="#837672"/><stop offset="1" stop-color="#786a65"/></radialGradient></defs><title>logo-lg</title><g id="Layer_2" data-name="Layer 2"><g id="centered_version2" data-name="centered version2"><path class="cls-1" d="M21.86 21c-.55.2-.84-.09-.65-.65l.34-.95a2.65 2.65 0 0 0-2 .68 2.23 2.23 0 0 0-.58 3 2.23 2.23 0 0 0 3.1-.14 2.49 2.49 0 0 0 .9-2.39zm22.31 2.8c-.55.2-.85-.09-.65-.65l.4-1.11a1.9 1.9 0 0 0-2.07 0 2.21 2.21 0 0 0-.09 3.1 2.23 2.23 0 0 0 3 .79 2.09 2.09 0 0 0 .45-2.52z" transform="translate(-.22)"/><path class="cls-2" d="M16.45 43.88a36.36 36.36 0 0 1-3.8-3.56 33.07 33.07 0 0 1-7.51-13.07c-.11-.38-.21-.75-.3-1.13a.11.11 0 0 0-.11-.12.12.12 0 0 0-.12.12 23.81 23.81 0 0 0 .67 6.39c.09.37.19.76.3 1.14.2.7.45 1.38.7 2.06 2 4.65 6 7.85 10.1 8.38a.11.11 0 0 0 .07-.21z" transform="translate(-.22)"/><path class="cls-3" d="M89.5 27.37A10 10 0 1 0 74 37.83a33.77 33.77 0 0 1-2.4 2.91 6.5 6.5 0 0 0-.79-1.8l-.09-.15v-.06a6.88 6.88 0 0 0-.83-1 7.07 7.07 0 0 0-1.16-1l-.1-.07h-.05l-.18-.11A5.51 5.51 0 0 0 67 36a5.6 5.6 0 0 0-2-.25 7.85 7.85 0 0 0-5 2.13c-4.16 3.7-5 9.73-5.1 12.63a29.71 29.71 0 0 1-6.58.75 28.33 28.33 0 0 1-5-.45l-1.11-.23-1.07-.24 1.15-.24a21.53 21.53 0 0 0 9.22-4.29 20 20 0 0 0 6.81-10.58 22.82 22.82 0 0 0 .73-5.78 26.18 26.18 0 0 0-.81-6.38c3.32-1 6.7-3.82 7.12-7.72a9.33 9.33 0 0 0-8.3-10.24H57a9.59 9.59 0 0 0-8.57 3.54A28.22 28.22 0 0 0 42.29 5 30.21 30.21 0 0 0 34 2.72a30.21 30.21 0 0 0-8.61.45 28.22 28.22 0 0 0-7 2.38A9.58 9.58 0 0 0 10.64.07 9.31 9.31 0 0 0 .27 8.19v.07c-.38 3.51 2 6.93 4.85 8.77A23.82 23.82 0 0 0 5 19.72c0 6.89 2.93 14 8.39 20a34 34 0 0 0 18.68 10.44 29.05 29.05 0 0 0 4.38.45h.08a28.61 28.61 0 0 0 6.39 1.94 30.06 30.06 0 0 0 5.31.45 33.11 33.11 0 0 0 19.17-6.31 4.63 4.63 0 0 0 2.19-.57A36.52 36.52 0 0 1 65 49.28a34.72 34.72 0 0 1-9.47 3.79.1.1 0 0 0-.09.07.11.11 0 0 0 .06.15 25.33 25.33 0 0 0 14.26 2.76c6.89-.51 10.13-5 10.52-7.67a6.17 6.17 0 0 0-1.7-5.65 3.81 3.81 0 0 0-2.66-1 3.66 3.66 0 0 0-2.63.93q-1.21 1.29-2.54 2.46a4.39 4.39 0 0 0 .9-2 36.07 36.07 0 0 0 3.88-4.55l.26-.35c.45-.55.9-.45 1 .2l.08.87A10 10 0 0 0 89.5 27.37zm-47.87-7.52c1.35-1 3.47-.42 4.75 1.29s1.24 3.92-.11 4.92-3.47.42-4.75-1.29-1.23-3.91.11-4.92zM18.26 18.1c1.62-1.4 3.82-1.51 4.91-.24s.67 3.43-.95 4.83-3.82 1.51-4.91.24-.66-3.43.95-4.83zm14.23 30.29a32.26 32.26 0 0 1-17.8-10C9.55 32.86 6.74 26 6.74 19.5a14.16 14.16 0 0 1 .06-1.58 7.63 7.63 0 0 0 .9.3c-.4 6.58 2.37 13.8 7.67 19.54a32.75 32.75 0 0 0 6.31 5.32 1.27 1.27 0 0 0 .3-1.7 14.8 14.8 0 0 1-1.27-10.7A12.66 12.66 0 0 1 24 24.89c2.15-2.15 4.9-2.41 7.82-2.13S37.36 24 39 26.5a12.66 12.66 0 0 1 1.94 6.35A14.8 14.8 0 0 1 37.42 43a1.35 1.35 0 0 0 .08 2l.11.09.38.29a8.35 8.35 0 0 0 .79.49A9.23 9.23 0 0 0 44 46.9a18.27 18.27 0 0 0 6-3.16 16.91 16.91 0 0 0 5.81-9 21.84 21.84 0 0 0-.2-11.25 7.82 7.82 0 0 0 .95 0 24.43 24.43 0 0 1 .81 6.14 20.88 20.88 0 0 1-.67 5.32 17.86 17.86 0 0 1-6.15 9.56 20.7 20.7 0 0 1-13.18 4.4 27.13 27.13 0 0 1-4.88-.52zm49.1-10.67a8.16 8.16 0 0 1-1.29.19 8.31 8.31 0 0 1-2.44-16.39 8.44 8.44 0 0 1 1.29-.19 8.31 8.31 0 0 1 2.45 16.4z" transform="translate(-.22)"/><path class="cls-1" d="M36 37.68a.23.23 0 0 0-.32 0 3.37 3.37 0 0 1-.45.39 2.61 2.61 0 0 1-1.54.17 5.46 5.46 0 0 1-2.5-1.24.9.9 0 0 1-.27-.78c0-.12.12-1.66.23-2.15a3.72 3.72 0 0 1 .18-.59c1.23-.21 3.7-1.18 3.85-2.63.18-1.71-1.49-3.28-3.72-3.51s-4.19 1-4.37 2.66c-.09 1.51 2.13 3 3.29 3.44a4 4 0 0 1 0 .61c0 .5-.28 2-.3 2.14a.9.9 0 0 1-.45.69 5.49 5.49 0 0 1-2.76.54 2.58 2.58 0 0 1-1.45-.54 3.34 3.34 0 0 1-.33-.48.23.23 0 0 0-.3-.09c-.13.06-.15.28-.14.39a2.15 2.15 0 0 0 1.85 2 4.39 4.39 0 0 0 3.73-1.35.16.16 0 0 1 .13-.05.14.14 0 0 1 .1.07 4.39 4.39 0 0 0 3.3 2.25 2.15 2.15 0 0 0 2.24-1.5c.12-.12.15-.35 0-.44z" transform="translate(-.22)"/><path class="cls-4" d="M109.56 14.1a12.45 12.45 0 0 1 9.21 3.71l-2.18 3.67a10.6 10.6 0 0 0-6.82-2.87c-5.28 0-8.37 4.28-8.37 9.32s3.2 9.71 8.4 9.71a10.46 10.46 0 0 0 7.2-3.44l2.39 3.55a13 13 0 0 1-9.81 4.4C102 42.15 96.71 36 96.71 28s5.5-13.9 12.85-13.9zm11.6.46h4.46V24c0 1-.07 1.65-.07 1.65h.07a6.85 6.85 0 0 1 6.19-3.86c4 0 6.22 2.25 6.22 7.41v12.49h-4.43V30.15c0-2.37-.56-4-2.85-4a5.13 5.13 0 0 0-4.85 4.06 9.51 9.51 0 0 0-.28 2.52v8.94h-4.46zM141 22.2h4.45v19.49h-4.46zm0-7.66h4.45v3.65h-4.46zm159.85 0h4.46v3.65h-4.46zm-152.5.02h4.43v20.33c0 2.14.67 2.67 1.83 2.67a6.27 6.27 0 0 0 .67 0v4.24a9.36 9.36 0 0 1-1.41.11c-2.46 0-5.52-.69-5.52-6.27zm15.36 7.18c3.94 0 5.17 2.48 5.17 2.48h.07v-9.67h4.45v27.14h-4.22v-1.6a10.71 10.71 0 0 1 .07-1.26h-.07a6.21 6.21 0 0 1-5.63 3.32c-4.85 0-7.94-4.17-7.94-10.2s3.39-10.21 8.1-10.21zm.84 16.32c2.32 0 4.51-1.84 4.51-6.15 0-3-1.47-6-4.46-6-2.46 0-4.51 2.18-4.51 6s1.83 6.12 4.47 6.12zm11.97-15.86h4.29v3.36c0 .73-.07 1.38-.07 1.38h.07c.81-2.79 3-5 5.69-5a4.7 4.7 0 0 1 .81.08v4.78a7.07 7.07 0 0 0-1.06-.08 5.14 5.14 0 0 0-4.89 4.09A11.31 11.31 0 0 0 181 34v7.73h-4.46zm19.93-.46c5.17 0 7.94 4.09 7.94 9.25 0 .57-.1 1.87-.1 1.87h-12.38a5.26 5.26 0 0 0 5.38 5.14 8.52 8.52 0 0 0 5.17-2.14l1.72 3.48a10.75 10.75 0 0 1-7.18 2.8c-5.93 0-9.62-4.65-9.62-10.19-.03-6 3.72-10.21 9.07-10.21zm3.44 7.8c-.07-2.64-1.58-4.06-3.55-4.06-2.29 0-3.87 1.53-4.29 4.06zm6.44-7.34h4.29v2.25a13 13 0 0 1-.07 1.35h.07a6.93 6.93 0 0 1 6.38-4.05c4 0 6.22 2.25 6.22 7.41V41.7h-4.43V30.15c0-2.37-.56-4-2.85-4a5 5 0 0 0-4.82 4 8.9 8.9 0 0 0-.32 2.6v8.95h-4.46zm21.9 13.68a7.25 7.25 0 0 0 4.89 2.12c1.27 0 2.35-.61 2.35-1.76 0-2.9-8.72-2.52-8.72-8.79 0-3.63 3-5.73 6.86-5.73a8.19 8.19 0 0 1 6 2.22L238 27.57a6.53 6.53 0 0 0-4.4-1.68c-1.16 0-2.29.54-2.29 1.76 0 2.75 8.72 2.41 8.72 8.68 0 3.25-2.6 5.86-6.86 5.86a9.68 9.68 0 0 1-7-2.87zm19.83-21.32h4.54l9.46 15.66a42.57 42.57 0 0 1 2.07 4.2h.07s-.25-2.6-.25-4.2V14.56h4.51v27.13H264l-9.47-15.63a42.42 42.42 0 0 1-2.07-4.2h-.07s.25 2.6.25 4.2v15.63h-4.53zm32.82 14.9h.6v-.26c0-2.56-1.48-3.44-3.44-3.44a9.18 9.18 0 0 0-4.92 1.87l-1.69-3.48a11.52 11.52 0 0 1 7-2.41c4.71 0 7.45 2.83 7.45 7.76v12.18h-4.08v-1.59a13.38 13.38 0 0 1 .07-1.38h-.07a6.07 6.07 0 0 1-11.53-2.64c-.01-6.19 7.73-6.61 10.61-6.61zm-3.41 8.91c2.35 0 4.06-2.75 4.06-5.12v-.45h-.77c-2.29 0-6 .34-6 3.06a2.45 2.45 0 0 0 2.69 2.52zm11.99-12h-2.32v-3.86h2.43v-5.62h4.36v5.62H298v3.86h-4.06v7.57c0 3.21 2.32 3.67 3.55 3.67a3.8 3.8 0 0 0 .79-.08v4.24a7.1 7.1 0 0 1-1.35.11c-2.5 0-7.45-.8-7.45-7.34zm11.39-4.17h4.46v19.49h-4.46zm16.15-.46a9.83 9.83 0 0 1 9.88 10.2 9.87 9.87 0 1 1-19.72 0 9.79 9.79 0 0 1 9.84-10.2zM317 38c2.88 0 5.31-2.44 5.31-6.08s-2.43-6.07-5.31-6.07-5.34 2.48-5.34 6.08S314.11 38 317 38zm11.7-15.8h4.3v2.25a13.08 13.08 0 0 1-.07 1.35h.07a6.93 6.93 0 0 1 6.36-4.06c4 0 6.22 2.25 6.22 7.41V41.7h-4.42V30.15c0-2.37-.56-4-2.85-4a5 5 0 0 0-4.82 4 8.88 8.88 0 0 0-.32 2.6v8.95h-4.47zm28.91 7.26h.6v-.26c0-2.56-1.47-3.44-3.44-3.44a9.18 9.18 0 0 0-4.92 1.87l-1.69-3.48a11.52 11.52 0 0 1 7-2.41c4.71 0 7.45 2.83 7.45 7.76v12.18h-4.11v-1.59a13.38 13.38 0 0 1 .07-1.38h-.07a6.08 6.08 0 0 1-11.5-2.63c0-6.2 7.69-6.62 10.61-6.62zm-3.43 8.91c2.35 0 4.06-2.75 4.06-5.12v-.45h-.78c-2.29 0-6 .34-6 3.06a2.48 2.48 0 0 0 2.72 2.51zm11.09-23.81h4.43v20.33c0 2.14.67 2.67 1.83 2.67a6.26 6.26 0 0 0 .69 0v4.24a9.37 9.37 0 0 1-1.41.11c-2.46 0-5.52-.69-5.52-6.27zm-140.41 7.72v-5.39h3.84s0 4.31-3.84 5.39zM248 55.27h2V62h7.3v-6.73h2v15.21h-2V63.8H250v6.68h-2zm17.72 4.05c2.85 0 4.37 2.29 4.37 5.1 0 .28-.06.9-.06.9h-7.38a3.43 3.43 0 0 0 3.47 3.61 4.65 4.65 0 0 0 3-1.27l.8 1.53a5.79 5.79 0 0 1-3.92 1.55c-3.16 0-5.35-2.48-5.35-5.71.02-3.47 2.19-5.71 5.07-5.71zm2.39 4.44c-.06-1.88-1.11-2.76-2.43-2.76a3 3 0 0 0-3 2.78zm9.11-.09h.45v-.19c0-1.8-.94-2.39-2.21-2.39a4.91 4.91 0 0 0-2.81 1.06l-.8-1.53a6 6 0 0 1 3.77-1.29c2.55 0 4 1.51 4 4.27v6.89h-1.8v-1.86a3.52 3.52 0 0 1-3.23 2.16 3.26 3.26 0 0 1-3.43-3.31c-.02-3.66 4.36-3.81 6.06-3.81zM275 69.06c1.63 0 2.71-1.85 2.71-3.47v-.34h-.5c-1.46 0-4.09.11-4.09 2.07a1.74 1.74 0 0 0 1.74 1.75h.14zm6.89-13.79h1.95v11.88c0 1.31.48 1.55 1.08 1.55h.34v1.85a5.14 5.14 0 0 1-.64 0c-1.1 0-2.71-.32-2.71-3.06zm5.03 6.14h-1.32v-1.68h1.4v-3.16h1.88v3.16h2.43v1.68h-2.43v4.85c0 2.18 1.42 2.46 2.16 2.46a2.12 2.12 0 0 0 .45 0v1.85a5 5 0 0 1-.68 0c-1.29 0-3.87-.45-3.87-4.06zm6.08-6.14h1.93v6.48a4.06 4.06 0 0 1 3.73-2.43c2.37 0 3.47 1.4 3.47 4.18v7h-1.93V64c0-1.53-.3-2.74-1.92-2.74a3.39 3.39 0 0 0-3.19 2.71 5.47 5.47 0 0 0-.16 1.44v5.09H293zm17 11.85a5.42 5.42 0 0 0 3.61 1.64A2.24 2.24 0 0 0 316 66.5c0-3.3-6.82-2.58-6.82-7.26a4.3 4.3 0 0 1 4.54-4.24 5.56 5.56 0 0 1 4 1.53l-.9 1.77a4.8 4.8 0 0 0-3.1-1.3 2.37 2.37 0 0 0-2.55 2.22c0 3.16 6.82 2.3 6.82 7.24a4.19 4.19 0 0 1-4.47 4.28 6.39 6.39 0 0 1-4.67-2z" transform="translate(-.22)"/><path class="cls-4" d="M318.73 72.74a2.16 2.16 0 0 0 1.18.45c.78 0 1.43-.6 1.8-1.6l.5-1.25L318 59.57h2.17l2.53 7.13c.2.56.38 1.31.38 1.31s.16-.73.34-1.29l2.45-7.15H328l-4.7 12.86A3.5 3.5 0 0 1 320 75a3.37 3.37 0 0 1-2-.67zm10.46-5.09a4.2 4.2 0 0 0 2.89 1.27c.84 0 1.68-.45 1.68-1.35 0-2-5.19-1.6-5.19-5.15 0-2 1.64-3.1 3.65-3.1a4.37 4.37 0 0 1 3.25 1.21l-.78 1.57a3.55 3.55 0 0 0-2.49-1c-.84 0-1.65.39-1.65 1.35 0 2 5.19 1.53 5.19 5.11 0 1.8-1.44 3.16-3.65 3.16a5.25 5.25 0 0 1-3.83-1.59zm8.76-6.24h-1.35v-1.68h1.4v-3.16h1.88v3.16h2.43v1.68h-2.43v4.85c0 2.18 1.42 2.46 2.16 2.46a2.13 2.13 0 0 0 .45 0v1.85a5 5 0 0 1-.68 0c-1.3 0-3.87-.45-3.87-4.06zm10.17-2.09c2.85 0 4.37 2.29 4.37 5.1 0 .28-.06.9-.06.9h-7.36a3.43 3.43 0 0 0 3.47 3.61 4.65 4.65 0 0 0 3-1.27l.8 1.53a5.8 5.8 0 0 1-3.91 1.55c-3.16 0-5.35-2.48-5.35-5.71-.01-3.47 2.17-5.71 5.04-5.71zm2.39 4.44c-.06-1.88-1.14-2.78-2.43-2.78a3 3 0 0 0-3 2.78zm3.85-4.18h1.88V61a7.64 7.64 0 0 1 0 .8 4 4 0 0 1 3.47-2.5 2.79 2.79 0 0 1 3 2.48 4.06 4.06 0 0 1 3.61-2.48c2.25 0 3.33 1.4 3.33 4.18v7h-1.93V64c0-1.53-.28-2.74-1.8-2.74s-2.48 1.29-2.83 2.78a7 7 0 0 0-.09 1.46v5h-1.93V64c0-1.42-.2-2.74-1.75-2.74s-2.51 1.31-2.89 2.87a6.47 6.47 0 0 0-.12 1.42v5h-2zM378.4 37.3a2.32 2.32 0 1 1-2.25 2.38v-.07a2.29 2.29 0 0 1 2.25-2.31zm0 4.29a2 2 0 1 0-1.87-2.07v.1a1.91 1.91 0 0 0 1.85 2zm-.77-3.22h.9a.7.7 0 0 1 .74.74.65.65 0 0 1-.45.66l.08.14.48.94H379l-.5-1h-.5v1h-.38zm.82 1.2a.42.42 0 0 0 .45-.45.41.41 0 0 0-.36-.45H378v.9z" transform="translate(-.22)"/></g></g></svg>